<?xml version="1.0" encoding="UTF-8"?>
<svg xmlns="http://www.w3.org/2000/svg" width="0" height="0" viewBox="0 0 256 256" aria-hidden="true">
  <!--
    Alphabet illustration sprite (transparent background).
    Use via: <svg><use href="/assets/alphabet/alphabet-sprite.svg#apple" /></svg>
  -->

  <defs>
    <style>
      .s-stroke{stroke:#1b1b1b;stroke-width:10;stroke-linecap:round;stroke-linejoin:round}
    </style>
  </defs>

  <!-- A: Apple -->
  <symbol id="apple" viewBox="0 0 256 256">
    <circle cx="128" cy="148" r="70" fill="#e83b3b" class="s-stroke"/>
    <path d="M128 78c14-10 28-18 36-22" fill="none" class="s-stroke"/>
    <path d="M155 68c20 0 34 10 40 24-20 2-38-2-52-14 2-4 6-10 12-10z" fill="#35b86b" class="s-stroke"/>
    <path d="M94 144c10-18 26-28 44-28" fill="none" stroke="#ffffff" stroke-opacity="0.35" stroke-width="14" stroke-linecap="round"/>
  </symbol>

  <!-- B: Ball -->
  <symbol id="ball" viewBox="0 0 256 256">
    <circle cx="128" cy="128" r="78" fill="#ffffff" class="s-stroke"/>
    <polygon points="128,86 100,106 110,138 146,138 156,106" fill="#1b1b1b"/>
    <polygon points="100,106 76,116 82,144 110,138" fill="#1b1b1b"/>
    <polygon points="156,106 180,116 174,144 146,138" fill="#1b1b1b"/>
    <polygon points="110,138 96,168 128,186 160,168 146,138" fill="#1b1b1b"/>
  </symbol>

  <!-- C: Cat -->
  <symbol id="cat" viewBox="0 0 256 256">
    <circle cx="128" cy="140" r="70" fill="#ffb24a" class="s-stroke"/>
    <polygon points="78,96 96,44 122,86" fill="#ffb24a" class="s-stroke"/>
    <polygon points="178,96 160,44 134,86" fill="#ffb24a" class="s-stroke"/>
    <circle cx="104" cy="140" r="10" fill="#1b1b1b"/>
    <circle cx="152" cy="140" r="10" fill="#1b1b1b"/>
    <path d="M116 168c8 8 16 8 24 0" fill="none" class="s-stroke"/>
    <path d="M82 156h20M154 156h20" fill="none" class="s-stroke"/>
    <path d="M128 152l-10 8h20z" fill="#ff6b6b" class="s-stroke"/>
  </symbol>

  <!-- D: Dog -->
  <symbol id="dog" viewBox="0 0 256 256">
    <circle cx="128" cy="140" r="70" fill="#c98a5a" class="s-stroke"/>
    <ellipse cx="70" cy="142" rx="26" ry="42" fill="#b5794e" class="s-stroke"/>
    <ellipse cx="186" cy="142" rx="26" ry="42" fill="#b5794e" class="s-stroke"/>
    <ellipse cx="128" cy="166" rx="34" ry="26" fill="#f2d2b6" class="s-stroke"/>
    <circle cx="106" cy="134" r="10" fill="#1b1b1b"/>
    <circle cx="150" cy="134" r="10" fill="#1b1b1b"/>
    <circle cx="128" cy="172" r="10" fill="#1b1b1b"/>
  </symbol>

  <!-- E: Elephant -->
  <symbol id="elephant" viewBox="0 0 256 256">
    <ellipse cx="130" cy="140" rx="78" ry="64" fill="#87a8c7" class="s-stroke"/>
    <ellipse cx="70" cy="132" rx="36" ry="46" fill="#87a8c7" class="s-stroke"/>
    <path d="M156 150c30 8 48 24 44 44-4 22-32 18-44 2" fill="none" class="s-stroke"/>
    <circle cx="154" cy="128" r="10" fill="#1b1b1b"/>
    <path d="M120 150c10 16 22 16 32 0" fill="none" class="s-stroke"/>
  </symbol>

  <!-- F: Fish -->
  <symbol id="fish" viewBox="0 0 256 256">
    <ellipse cx="118" cy="128" rx="74" ry="52" fill="#4bb7ff" class="s-stroke"/>
    <polygon points="184,128 232,90 232,166" fill="#4bb7ff" class="s-stroke"/>
    <circle cx="92" cy="120" r="10" fill="#1b1b1b"/>
    <path d="M110 140c14 10 30 10 44 0" fill="none" class="s-stroke"/>
    <path d="M144 88c-10 14-10 22 0 36" fill="none" stroke="#ffffff" stroke-opacity="0.45" stroke-width="12" stroke-linecap="round"/>
  </symbol>

  <!-- G: Giraffe -->
  <symbol id="giraffe" viewBox="0 0 256 256">
    <rect x="120" y="58" width="44" height="138" rx="22" fill="#ffd26e" class="s-stroke"/>
    <ellipse cx="142" cy="56" rx="46" ry="34" fill="#ffd26e" class="s-stroke"/>
    <circle cx="128" cy="52" r="8" fill="#1b1b1b"/>
    <circle cx="156" cy="52" r="8" fill="#1b1b1b"/>
    <path d="M132 76c8 8 16 8 24 0" fill="none" class="s-stroke"/>
    <circle cx="132" cy="108" r="10" fill="#c08a3a"/>
    <circle cx="154" cy="136" r="10" fill="#c08a3a"/>
    <circle cx="132" cy="164" r="10" fill="#c08a3a"/>
  </symbol>

  <!-- H: Horse -->
  <symbol id="horse" viewBox="0 0 256 256">
    <path d="M78 154c0-54 36-96 88-96 18 0 34 6 46 16-14 10-18 22-16 38 4 28-12 44-34 54-18 8-30 16-48 24-18 8-36 6-36-36z" fill="#9b6b43" class="s-stroke"/>
    <path d="M138 70c12-8 26-10 40-6" fill="none" stroke="#1b1b1b" stroke-width="14" stroke-linecap="round"/>
    <circle cx="156" cy="108" r="10" fill="#1b1b1b"/>
    <path d="M154 136c18 6 28 18 28 34" fill="none" class="s-stroke"/>
  </symbol>

  <!-- I: Ice Cream -->
  <symbol id="ice-cream" viewBox="0 0 256 256">
    <circle cx="128" cy="92" r="56" fill="#ffb3d9" class="s-stroke"/>
    <path d="M92 136l36 104 36-104z" fill="#f2c28b" class="s-stroke"/>
    <path d="M104 160l48 0" fill="none" stroke="#d39a64" stroke-width="10" stroke-linecap="round"/>
    <path d="M98 120c10-16 26-24 48-24" fill="none" stroke="#ffffff" stroke-opacity="0.45" stroke-width="12" stroke-linecap="round"/>
  </symbol>

  <!-- J: Jellyfish -->
  <symbol id="jellyfish" viewBox="0 0 256 256">
    <path d="M64 124c0-44 30-76 64-76s64 32 64 76c0 12-2 22-6 30H70c-4-8-6-18-6-30z" fill="#b39cff" class="s-stroke"/>
    <path d="M88 160v56M112 160c0 26-10 34-10 56M136 160v56M160 160c0 26 10 34 10 56" fill="none" class="s-stroke"/>
    <circle cx="108" cy="120" r="8" fill="#1b1b1b"/>
    <circle cx="148" cy="120" r="8" fill="#1b1b1b"/>
  </symbol>

  <!-- K: Kite -->
  <symbol id="kite" viewBox="0 0 256 256">
    <polygon points="128,34 190,110 128,186 66,110" fill="#ff6b6b" class="s-stroke"/>
    <path d="M128 186v36" fill="none" class="s-stroke"/>
    <path d="M128 220c-18 10-34 10-52 0" fill="none" class="s-stroke"/>
    <path d="M138 74l-20 20 20 20" fill="none" stroke="#ffffff" stroke-opacity="0.6" stroke-width="12" stroke-linecap="round" stroke-linejoin="round"/>
  </symbol>

  <!-- L: Lion -->
  <symbol id="lion" viewBox="0 0 256 256">
    <circle cx="128" cy="144" r="78" fill="#f0a13a" class="s-stroke"/>
    <circle cx="128" cy="150" r="54" fill="#ffd26e" class="s-stroke"/>
    <circle cx="108" cy="140" r="10" fill="#1b1b1b"/>
    <circle cx="148" cy="140" r="10" fill="#1b1b1b"/>
    <path d="M112 170c10 10 22 10 32 0" fill="none" class="s-stroke"/>
    <path d="M128 156l-10 8h20z" fill="#ff6b6b" class="s-stroke"/>
  </symbol>

  <!-- M: Monkey -->
  <symbol id="monkey" viewBox="0 0 256 256">
    <circle cx="128" cy="140" r="70" fill="#b5794e" class="s-stroke"/>
    <circle cx="72" cy="142" r="26" fill="#b5794e" class="s-stroke"/>
    <circle cx="184" cy="142" r="26" fill="#b5794e" class="s-stroke"/>
    <ellipse cx="128" cy="166" rx="44" ry="34" fill="#f2d2b6" class="s-stroke"/>
    <circle cx="108" cy="134" r="10" fill="#1b1b1b"/>
    <circle cx="148" cy="134" r="10" fill="#1b1b1b"/>
    <path d="M112 172c10 12 22 12 32 0" fill="none" class="s-stroke"/>
  </symbol>

  <!-- N: Nest -->
  <symbol id="nest" viewBox="0 0 256 256">
    <ellipse cx="128" cy="164" rx="86" ry="50" fill="#c38a5a" class="s-stroke"/>
    <path d="M56 164c22-26 54-38 72-38s50 12 72 38" fill="none" stroke="#1b1b1b" stroke-width="10" stroke-linecap="round"/>
    <path d="M70 176c36-20 80-20 116 0" fill="none" stroke="#1b1b1b" stroke-width="10" stroke-linecap="round"/>
    <ellipse cx="128" cy="150" rx="26" ry="20" fill="#ffffff" class="s-stroke"/>
  </symbol>

  <!-- O: Orange -->
  <symbol id="orange" viewBox="0 0 256 256">
    <circle cx="128" cy="148" r="74" fill="#ff8a2a" class="s-stroke"/>
    <path d="M128 76c10-14 20-22 34-26" fill="none" class="s-stroke"/>
    <path d="M152 70c18 4 30 14 34 30-16 0-30-4-44-16 2-6 4-12 10-14z" fill="#35b86b" class="s-stroke"/>
    <path d="M128 92v112M88 148h80M100 112c18 14 38 14 56 0M100 184c18-14 38-14 56 0" fill="none" stroke="#ffffff" stroke-opacity="0.35" stroke-width="10" stroke-linecap="round"/>
  </symbol>

  <!-- P: Penguin -->
  <symbol id="penguin" viewBox="0 0 256 256">
    <ellipse cx="128" cy="150" rx="70" ry="86" fill="#2d2d2d" class="s-stroke"/>
    <ellipse cx="128" cy="166" rx="44" ry="58" fill="#ffffff" class="s-stroke"/>
    <circle cx="110" cy="132" r="8" fill="#1b1b1b"/>
    <circle cx="146" cy="132" r="8" fill="#1b1b1b"/>
    <polygon points="128,144 114,154 142,154" fill="#ffb24a" class="s-stroke"/>
  </symbol>

  <!-- Q: Queen -->
  <symbol id="queen" viewBox="0 0 256 256">
    <circle cx="128" cy="156" r="58" fill="#ffd2a8" class="s-stroke"/>
    <path d="M72 108l20 26 36-44 36 44 20-26 16 58H56z" fill="#ffd26e" class="s-stroke"/>
    <circle cx="92" cy="120" r="8" fill="#ff6b6b"/>
    <circle cx="128" cy="100" r="8" fill="#4bb7ff"/>
    <circle cx="164" cy="120" r="8" fill="#b39cff"/>
    <circle cx="108" cy="156" r="8" fill="#1b1b1b"/>
    <circle cx="148" cy="156" r="8" fill="#1b1b1b"/>
    <path d="M112 186c10 10 22 10 32 0" fill="none" class="s-stroke"/>
  </symbol>

  <!-- R: Rainbow -->
  <symbol id="rainbow" viewBox="0 0 256 256">
    <path d="M56 176a72 72 0 0 1 144 0" fill="none" stroke="#ff6b6b" stroke-width="20" stroke-linecap="round"/>
    <path d="M76 176a52 52 0 0 1 104 0" fill="none" stroke="#ffcc4d" stroke-width="20" stroke-linecap="round"/>
    <path d="M96 176a32 32 0 0 1 64 0" fill="none" stroke="#35b86b" stroke-width="20" stroke-linecap="round"/>
    <path d="M116 176a12 12 0 0 1 24 0" fill="none" stroke="#4bb7ff" stroke-width="20" stroke-linecap="round"/>
  </symbol>

  <!-- S: Sun -->
  <symbol id="sun" viewBox="0 0 256 256">
    <circle cx="128" cy="128" r="54" fill="#ffcc4d" class="s-stroke"/>
    <path d="M128 36v28M128 192v28M36 128h28M192 128h28M58 58l20 20M178 178l20 20M58 198l20-20M178 78l20-20" fill="none" class="s-stroke"/>
    <circle cx="108" cy="124" r="8" fill="#1b1b1b"/>
    <circle cx="148" cy="124" r="8" fill="#1b1b1b"/>
    <path d="M108 152c12 10 28 10 40 0" fill="none" class="s-stroke"/>
  </symbol>

  <!-- T: Tiger -->
  <symbol id="tiger" viewBox="0 0 256 256">
    <circle cx="128" cy="144" r="72" fill="#ff8a2a" class="s-stroke"/>
    <polygon points="82,102 96,56 120,92" fill="#ff8a2a" class="s-stroke"/>
    <polygon points="174,102 160,56 136,92" fill="#ff8a2a" class="s-stroke"/>
    <circle cx="108" cy="140" r="10" fill="#1b1b1b"/>
    <circle cx="148" cy="140" r="10" fill="#1b1b1b"/>
    <path d="M128 150l-10 8h20z" fill="#ff6b6b" class="s-stroke"/>
    <path d="M94 120l14 10M162 120l-14 10M128 112v22" fill="none" class="s-stroke"/>
  </symbol>

  <!-- U: Umbrella -->
  <symbol id="umbrella" viewBox="0 0 256 256">
    <path d="M48 132c18-52 52-82 80-82s62 30 80 82c-12-10-28-10-40 0-12-10-28-10-40 0-12-10-28-10-40 0-12-10-28-10-40 0z" fill="#4bb7ff" class="s-stroke"/>
    <path d="M128 132v76c0 18-18 24-30 12" fill="none" class="s-stroke"/>
    <path d="M98 220c6 10 22 10 26-4" fill="none" class="s-stroke"/>
  </symbol>

  <!-- V: Violin -->
  <symbol id="violin" viewBox="0 0 256 256">
    <path d="M146 58l52-52" fill="none" class="s-stroke"/>
    <rect x="168" y="8" width="18" height="86" rx="9" fill="#6f4a2d" class="s-stroke"/>
    <path d="M106 108c-24 8-40 30-40 54 0 38 26 64 62 64 36 0 62-26 62-64 0-24-16-46-40-54" fill="#c98a5a" class="s-stroke"/>
    <path d="M128 110v104" fill="none" stroke="#1b1b1b" stroke-width="8" stroke-linecap="round"/>
    <circle cx="100" cy="170" r="10" fill="#1b1b1b"/>
    <circle cx="156" cy="170" r="10" fill="#1b1b1b"/>
  </symbol>

  <!-- W: Whale -->
  <symbol id="whale" viewBox="0 0 256 256">
    <path d="M46 150c0-44 36-78 90-78 42 0 78 22 90 54-10 6-20 10-30 10-10 0-18-4-26-10-10 16-28 28-52 28-26 0-48-12-58-28-4 10-16 24-14 46 2 22-20 30-40 16 26-8 40-22 40-38z" fill="#4bb7ff" class="s-stroke"/>
    <circle cx="150" cy="120" r="8" fill="#1b1b1b"/>
    <path d="M168 92c10-18 26-18 36 0" fill="none" class="s-stroke"/>
  </symbol>

  <!-- X: Xylophone -->
  <symbol id="xylophone" viewBox="0 0 256 256">
    <rect x="56" y="138" width="144" height="20" rx="10" fill="#ff6b6b" class="s-stroke"/>
    <rect x="66" y="112" width="124" height="18" rx="9" fill="#ffcc4d" class="s-stroke"/>
    <rect x="76" y="88" width="104" height="16" rx="8" fill="#35b86b" class="s-stroke"/>
    <rect x="86" y="66" width="84" height="14" rx="7" fill="#4bb7ff" class="s-stroke"/>
    <path d="M176 170l40-40" fill="none" class="s-stroke"/>
    <circle cx="220" cy="126" r="12" fill="#b39cff" class="s-stroke"/>
  </symbol>

  <!-- Y: Yo-yo -->
  <symbol id="yoyo" viewBox="0 0 256 256">
    <circle cx="120" cy="140" r="56" fill="#ff6b6b" class="s-stroke"/>
    <circle cx="136" cy="140" r="56" fill="#ff8e8e" class="s-stroke"/>
    <circle cx="128" cy="140" r="16" fill="#ffffff" class="s-stroke"/>
    <path d="M128 84v-44" fill="none" class="s-stroke"/>
    <path d="M128 40c-18 14-30 30-30 48" fill="none" class="s-stroke"/>
  </symbol>

  <!-- Z: Zebra -->
  <symbol id="zebra" viewBox="0 0 256 256">
    <ellipse cx="128" cy="150" rx="70" ry="80" fill="#ffffff" class="s-stroke"/>
    <path d="M88 102l18 20M114 90l16 28M142 90l-10 32M170 102l-18 20M98 168l18-16M158 168l-18-16M116 204l12-18M140 204l-12-18" fill="none" stroke="#1b1b1b" stroke-width="10" stroke-linecap="round"/>
    <circle cx="108" cy="142" r="8" fill="#1b1b1b"/>
    <circle cx="148" cy="142" r="8" fill="#1b1b1b"/>
    <path d="M112 170c10 10 22 10 32 0" fill="none" class="s-stroke"/>
  </symbol>
</svg>

